<svg width="34" height="18" viewBox="0 0 34 18" fill="none" xmlns="http://www.w3.org/2000/svg">
<rect width="34" height="18" fill="#1E1E1E"/>
<g id="Landing_desctop (1920x1080 px&#39;s)" clip-path="url(#clip0_0_1)">
<rect width="1920" height="7758" transform="translate(-873 -2772)" fill="white"/>
<g id="Modul_&#208;&#164;&#208;&#158;&#208;&#161;">
<rect width="1920" height="978" transform="translate(-873 -352)" fill="#FF8340"/>
<g id="Frame 5">
<rect width="680" height="58" transform="translate(-613 -21)" fill="#292929"/>
<path id="Line 2" d="M1.68394 0.270463C1.28103 -0.107267 0.648193 -0.0868534 0.270463 0.316059C-0.107267 0.718971 -0.0868534 1.35181 0.316059 1.72954L1.68394 0.270463ZM17 16L16.3161 16.7295L17 17.3707L17.6839 16.7295L17 16ZM0.316059 1.72954L16.3161 16.7295L17.6839 15.2705L1.68394 0.270463L0.316059 1.72954ZM17.6839 16.7295L33.6839 1.72954L32.3161 0.270463L16.3161 15.2705L17.6839 16.7295Z" fill="white"/>
</g>
</g>
</g>
<defs>
<clipPath id="clip0_0_1">
<rect width="1920" height="7758" fill="white" transform="translate(-873 -2772)"/>
</clipPath>
</defs>
</svg>
